HIERARCHY
ROOT Hips
{
  OFFSET -183.335 85.8233 -1.3092
  CHANNELS 6 Xposition Yposition Zposition Zrotation Xrotation Yrotation
  JOINT RightUpLeg
  {
    OFFSET -8.9458 -8.66707 0.101652
    CHANNELS 3 Zrotation Xrotation Yrotation
    JOINT RightLeg
    {
      OFFSET 0 -44.4227 1.3727
      CHANNELS 3 Zrotation Xrotation Yrotation
      JOINT RightFoot
      {
        OFFSET 0.253549 -42.0924 -1.46059
        CHANNELS 3 Zrotation Xrotation Yrotation
        JOINT RightToes
        {
          OFFSET 0.04 -4.41509 8.4991
          CHANNELS 3 Zrotation Xrotation Yrotation
          End Site
          {
            OFFSET -0.08 -0.137448 9.77979
          }
        }
      }
    }
  }
  JOINT Spine
  {
    OFFSET 0 11.8905 0
    CHANNELS 3 Zrotation Xrotation Yrotation
    JOINT Spine1
    {
      OFFSET 0 25.6574 0.127663
      CHANNELS 3 Zrotation Xrotation Yrotation
      JOINT HEad
      {
        OFFSET 0 8.73416 0.011341
        CHANNELS 3 Zrotation Xrotation Yrotation
        End Site
        {
          OFFSET -0.29 12.7742 2.51395
        }
      }
      JOINT LeftShoulder1
      {
        OFFSET 8.99 -0.362252 -0.22
        CHANNELS 3 Zrotation Xrotation Yrotation
        JOINT LeftArm
        {
          OFFSET 10.2827 -0.00338 0.322123
          CHANNELS 3 Zrotation Xrotation Yrotation
          JOINT LeftForeArm
          {
            OFFSET 32.7669 0.099144 -1.42434
            CHANNELS 3 Zrotation Xrotation Yrotation
            JOINT LeftHand
            {
              OFFSET 27.5643 0.085362 1.02216
              CHANNELS 3 Zrotation Xrotation Yrotation
              End Site
              {
                OFFSET 16.7443 -0.6 1.50291
              }
            }
          }
        }
      }
      JOINT RightShoulder
      {
        OFFSET -8.99 -0.362252 -0.22
        CHANNELS 3 Zrotation Xrotation Yrotation
        JOINT RightArm
        {
          OFFSET -10.2827 -0.00338 0.322123
          CHANNELS 3 Zrotation Xrotation Yrotation
          JOINT RightForeArm
          {
            OFFSET -32.8971 0.099144 -1.42434
            CHANNELS 3 Zrotation Xrotation Yrotation
            JOINT RightHand
            {
              OFFSET -27.4921 0.085362 1.02216
              CHANNELS 3 Zrotation Xrotation Yrotation
              End Site
              {
                OFFSET -16.6312 -0.6 1.50291
              }
            }
          }
        }
      }
    }
  }
  JOINT LeftUpLeg
  {
    OFFSET 8.9458 -8.66707 0.101652
    CHANNELS 3 Zrotation Xrotation Yrotation
    JOINT LeftLeg
    {
      OFFSET 0 -44.4227 1.3727
      CHANNELS 3 Zrotation Xrotation Yrotation
      JOINT LeftFoot
      {
        OFFSET -0.253549 -42.0924 -1.46059
        CHANNELS 3 Zrotation Xrotation Yrotation
        JOINT LeftToes
        {
          OFFSET -0.04 -4.41509 8.4991
          CHANNELS 3 Zrotation Xrotation Yrotation
          End Site
          {
            OFFSET 0.08 -0.047448 9.77979
          }
        }
      }
    }
  }
}
MOTION
Frames:	14
Frame Time:	0.0166667
-108.998 80.1664 1.76959 11.8224 -18.0356 39.5316 -26.2848 -6.4512 13.0758 21.5456 58.4712 -13.1135 16.6292 1.93864 -1.51035 -33.5808 -34.0196 14.7498 0.69669 14.1474 4.00141 -0.374076 28.1513 8.42865 -4.19001 -14.3223 48.9697 -3.18055e-015 -3.18055e-015 -3.18055e-015 -15.4243 -57.0529 13.7254 -49.9608 10.2701 -54.7965 -40.7656 26.7219 -39.966 14.5726 3.51188 17.598 56.8374 -44.77 69.6196 20.8335 56.1975 121.835 6.29075 7.75683 -38.6186 37.8202 -6.90351 -11.4295 -20.9445 41.8478 27.7581 -14.7292 15.8158 2.90686 -19.2862 -43.58 -18.5826 
-109.517 80.2997 1.34363 11.775 -17.2155 38.5338 -26.5104 -6.21544 12.2157 21.1412 57.2535 -14.145 13.8029 -2.59716 -0.753008 -29.7797 -29.8903 14.2465 0.440855 14.0022 4.88615 -1.33105 27.8142 10.4265 -3.90994 -14.6819 47.8326 1.59028e-015 -4.77083e-015 3.18055e-015 -12.2236 -61.9299 23.2698 -49.6195 20.5167 -55.5801 -33.6438 24.0976 -41.0543 14.8334 3.43264 16.9008 54.9513 -43.2953 67.8506 20.7475 55.0839 121.285 6.00093 7.97823 -36.5315 37.706 -6.52318 -11.1443 -21.6533 40.3785 27.5109 -14.5754 15.1107 2.78961 -17.982 -42.456 -16.7191 
-110.347 80.8942 1.00898 11.39 -16.3309 38.166 -26.4493 -6.26328 11.2875 20.6968 55.4655 -14.2901 12.598 -5.06535 -0.442566 -27.0807 -27.0309 14.9343 0.380683 13.7213 5.53074 -1.85372 27.2372 11.867 -4.09228 -14.6688 46.2446 -3.53113e-031 -3.18055e-015 -6.36111e-015 -13.8055 -61.6961 28.557 -47.2238 25.519 -60.2934 -28.176 21.5728 -40.2841 14.9533 3.36082 16.3893 53.0238 -41.5878 65.8426 20.4822 53.9572 120.771 6.01693 8.08194 -34.8121 37.1801 -6.41884 -11.5743 -20.928 37.9902 27.2909 -14.0441 14.558 2.61876 -15.7243 -40.439 -13.1638 
-111.491 81.9502 0.675747 10.7734 -15.5812 37.9554 -25.9943 -6.72911 10.0104 19.0429 53.5583 -12.4497 13.5087 -4.12563 -0.568871 -27.1162 -27.1695 15.9019 0.524936 13.4226 6.04725 -2.11595 26.6549 13.0635 -4.61727 -14.5322 44.4917 1.59028e-015 1.59028e-015 6.36111e-015 -16.6404 -60.5652 32.3047 -44.9618 28.6693 -64.3499 -23.9702 19.5419 -39.0029 14.6187 3.27287 16.2039 51.6565 -39.7137 63.9922 20.121 53.12 120.363 6.21864 8.09996 -33.6843 36.4848 -6.08679 -12.5386 -19.1976 34.4953 27.5008 -13.1589 14.743 2.46589 -13.0137 -37.5396 -8.64276 
-112.953 83.4021 0.377601 10.0485 -14.9881 37.7721 -25.3323 -7.43728 8.41583 16.7847 51.4677 -9.38957 16.2287 -0.33655 -1.16866 -29.3691 -29.8806 17.2106 0.590198 13.1774 6.56214 -2.25148 26.1917 14.1441 -5.24718 -14.3735 42.7761 -0 -5.56597e-015 -0 -20.4874 -59.075 34.304 -42.998 30.6479 -67.4931 -20.5878 17.9581 -37.7897 13.8687 3.1671 16.2997 50.6167 -37.4676 62.2021 19.3076 52.2713 120.369 6.38801 8.09804 -33.0423 35.6962 -5.32901 -13.6767 -16.5102 29.9611 27.842 -12.2113 15.7194 2.37752 -9.96796 -33.1605 -3.41025 
-114.715 85.0859 0.199523 9.26044 -14.4111 37.8418 -24.8081 -8.11404 6.78234 15.4942 49.051 -6.59512 19.72 4.1793 -2.14682 -31.6804 -32.9165 19.4627 0.276946 12.9628 7.08847 -2.292 25.797 14.9871 -5.7357 -14.1295 41.2385 -3.18055e-015 -5.56597e-015 6.36111e-015 -24.7029 -57.6451 34.7647 -41.1211 32.1706 -70.0688 -17.526 16.6108 -36.7534 13 3.07923 16.6326 49.5225 -34.7575 60.3943 17.7715 51.0419 120.87 6.34134 8.13929 -32.5915 34.7734 -4.43695 -14.5358 -12.7813 24.8108 27.6151 -11.6956 17.2412 2.41789 -6.81639 -26.5227 2.14536 
-116.688 86.7786 0.164048 8.40532 -13.6944 38.5523 -24.6092 -8.60105 5.37898 15.9727 46.5743 -4.43697 22.4968 7.02706 -2.98453 -31.7292 -33.6978 22.8931 -0.308628 12.7196 7.45024 -2.21625 25.3645 15.33 -5.92542 -13.7596 39.9507 -3.18055e-015 -3.18055e-015 -3.18055e-015 -28.7448 -56.5162 33.9069 -39.0951 33.6637 -72.5958 -14.5009 15.346 -35.7386 12.314 3.06233 17.2537 48.6079 -32.0398 58.967 15.9437 49.7392 121.358 6.0411 8.24015 -32.1779 33.7351 -3.95391 -14.7635 -8.37392 19.5874 26.2298 -11.9435 19.137 2.65854 -4.14408 -17.8865 7.03084 
-118.753 88.2839 0.215736 7.52264 -12.776 40.1734 -24.6247 -8.87823 4.3886 17.5084 44.4774 -2.0749 23.659 7.36337 -3.20626 -29.3752 -31.4318 26.4521 -0.725698 12.4385 7.41918 -2.02985 24.8787 14.9554 -5.82154 -13.3745 38.8952 3.18055e-015 1.59028e-015 -0 -32.3963 -55.8723 31.8069 -36.8453 35.2429 -75.4061 -11.5255 14.1425 -34.5669 11.8931 3.14274 18.2534 48.4355 -30.0255 58.4342 14.5437 49.0889 121.312 5.56512 8.37167 -31.9301 32.7232 -4.30211 -14.2257 -4.30396 14.8022 23.4637 -12.8433 21.3871 3.11025 -2.42021 -9.61377 10.0094 
-120.841 89.517 0.296319 6.77405 -11.7033 42.6863 -24.5444 -8.93481 3.97182 18.6039 43.0876 1.15018 23.4226 6.25784 -2.9546 -26.5231 -27.8734 28.7288 -0.66426 12.1747 6.93007 -1.79283 24.4507 13.8516 -5.57431 -13.1555 37.9596 -0 -7.15625e-015 -0 -35.7729 -55.8158 28.3955 -34.4412 36.8469 -78.5716 -8.75756 13.0558 -33.1558 11.6378 3.29861 19.5925 49.2195 -28.97 58.9255 13.8137 49.3365 120.759 5.03285 8.49674 -32.0186 31.7659 -5.60731 -12.8611 -1.60739 11.2378 19.3353 -14.0998 23.9012 3.72897 -1.63968 -5.06057 10.2872 
-122.962 90.4972 0.39743 6.39659 -10.6013 45.816 -24.0806 -8.72625 4.33535 18.2636 42.6724 4.60523 22.555 5.01577 -2.60841 -24.571 -25.1506 29.8424 -0.178362 12.0082 6.13315 -1.54882 24.2331 12.2651 -5.38604 -13.1603 36.9245 1.59028e-015 3.18055e-015 -0 -39.1964 -56.2458 23.5435 -32.0544 38.3829 -81.9377 -6.32064 12.1364 -31.5358 11.528 3.48087 20.9444 50.574 -28.5191 60.1044 13.475 50.0352 120.147 4.55803 8.59301 -32.4262 30.6513 -7.79864 -10.7893 -0.603385 10.1785 14.384 -15.6445 26.1691 4.46076 -1.6541 -5.51594 7.8205 
-125.181 91.2574 0.579088 6.53451 -9.60483 49.2165 -23.1497 -8.20866 5.67803 16.7945 43.3292 6.37693 21.702 4.13106 -2.34875 -23.4891 -23.5783 30.7626 0.363912 11.9936 5.27659 -1.27248 24.3112 10.5948 -5.45778 -13.1962 35.525 -1.32417e-031 2.38542e-015 3.18055e-015 -43.0595 -56.855 17.153 -29.9014 39.7895 -85.1849 -4.21529 11.3881 -29.8214 11.8008 3.66961 21.8091 51.6457 -28.1372 61.334 13.1255 50.4971 119.983 4.20453 8.65632 -32.9634 29.3061 -10.5595 -8.74278 -0.942956 12.4128 10.102 -17.3325 27.6766 5.19139 -2.44708 -9.38921 3.25219 
-127.416 91.6805 0.850273 7.2499 -8.84208 52.5456 -22.0902 -7.34191 8.05196 15.6025 44.969 4.70721 21.0392 3.75478 -2.21163 -22.8565 -22.635 31.7279 0.790746 12.1434 4.55342 -0.872714 24.6491 9.17498 -5.89486 -12.9099 33.6535 7.94503e-031 -4.77083e-015 9.54166e-015 -47.6532 -57.2937 9.27591 -28.1448 41.0288 -87.9205 -2.31436 10.7672 -28.1497 12.7845 3.89831 21.9236 51.6932 -27.5428 62.0462 12.5843 50.3025 120.457 3.9944 8.68753 -33.4673 27.7995 -13.5897 -7.72438 -2.1889 18.2768 7.93567 -18.7126 28.1271 5.69848 -4.04 -14.629 -2.50711 
-129.549 91.673 1.18917 8.4173 -8.41413 55.537 -21.2085 -6.10432 11.0116 15.8494 47.1643 -0.486545 20.3269 4.09882 -2.19746 -22.5115 -22.1055 32.4443 1.0815 12.3983 4.0511 -0.278631 25.1151 8.14737 -6.54388 -12.0292 31.4982 -1.59028e-015 5.56597e-015 -3.18055e-015 -52.9813 -57.3161 0.242735 -26.8352 42.0681 -89.7936 -0.472033 10.2226 -26.6168 14.6007 4.20985 21.4808 50.6313 -26.773 62.013 11.9627 49.5132 121.388 3.94341 8.67736 -34.0077 26.3797 -16.1386 -7.97339 -4.05587 26.2637 8.02413 -19.6134 28.1699 5.99365 -6.45911 -20.2391 -8.82682 
-131.501 91.238 1.55119 9.81017 -8.37627 58.0305 -20.5823 -4.48974 13.5547 17.1956 49.3431 -7.02641 19.4784 4.98136 -2.25234 -22.3915 -21.9185 32.7925 1.32511 12.662 3.76767 0.512525 25.5496 7.50129 -7.06016 -10.5402 29.408 -2.20695e-031 3.97569e-015 3.18055e-015 -58.7162 -56.8204 -9.34696 -25.9403 42.8769 -90.585 1.32721 9.7396 -25.3033 17.0963 4.61939 20.8843 48.9399 -25.9823 61.3158 11.4744 48.4879 122.487 4.03429 8.61673 -34.8415 25.2438 -17.544 -8.87668 -6.08975 34.4262 9.2242 -20.4552 28.3539 6.2964 -9.64863 -25.6935 -15.3269 
